<svg width="48" height="45" viewBox="0 0 48 45" fill="none" xmlns="http://www.w3.org/2000/svg">
<path d="M24 0C10.7531 0 0 9.90817 0 22.1143C0 34.3203 10.7531 44.2285 24 44.2285C37.2469 44.2285 48 34.3203 48 22.1143C48 9.90817 37.2469 0 24 0ZM24 1.22857C36.5264 1.22857 46.6667 10.5721 46.6667 22.1143C46.6667 33.6564 36.5264 42.9999 24 42.9999C11.4736 42.9999 1.33333 33.6564 1.33333 22.1143C1.33333 10.5721 11.4736 1.22857 24 1.22857ZM24 3.07142C12.5899 3.07142 3.33333 11.6006 3.33333 22.1143C3.33333 32.6279 12.5899 41.1571 24 41.1571C35.4101 41.1571 44.6667 32.6279 44.6667 22.1143C44.6667 16.527 42.0527 11.4975 37.8906 8.0145C37.8585 7.98602 37.8205 7.96377 37.7788 7.94906C37.7372 7.93436 37.6928 7.9275 37.6482 7.92889C37.6037 7.93028 37.5599 7.9399 37.5194 7.95717C37.4789 7.97444 37.4426 7.99902 37.4127 8.02944C37.3827 8.05986 37.3597 8.09552 37.3449 8.13429C37.3302 8.17306 37.324 8.21417 37.3268 8.25517C37.3296 8.29618 37.3413 8.33625 37.3612 8.37301C37.3811 8.40978 37.4088 8.44249 37.4427 8.46921C41.4713 11.8404 44 16.7034 44 22.1143C44 32.2959 35.0499 40.5428 24 40.5428C12.9501 40.5428 4 32.2959 4 22.1143C4 11.9326 12.9501 3.68571 24 3.68571C26.4205 3.68571 28.7387 4.0825 30.8854 4.8075C30.9265 4.82137 30.9702 4.82764 31.014 4.82595C31.0577 4.82427 31.1007 4.81465 31.1404 4.79766C31.1802 4.78067 31.2159 4.75664 31.2455 4.72694C31.2751 4.69723 31.2981 4.66244 31.3132 4.62455C31.3282 4.58665 31.335 4.5464 31.3332 4.50608C31.3314 4.46576 31.3209 4.42617 31.3025 4.38957C31.284 4.35297 31.258 4.32008 31.2257 4.29277C31.1935 4.26546 31.1557 4.24427 31.1146 4.23041C28.896 3.48112 26.4995 3.07142 24 3.07142ZM32.987 5.00066C32.9121 5.00236 32.84 5.02725 32.7823 5.07132C32.7247 5.1154 32.6848 5.17608 32.6692 5.24359C32.6535 5.3111 32.663 5.3815 32.6961 5.44343C32.7292 5.50536 32.784 5.55522 32.8516 5.58495C33.2981 5.78855 33.7363 6.0073 34.1641 6.24003C34.2018 6.26153 34.2438 6.27587 34.2876 6.28221C34.3315 6.28855 34.3762 6.28677 34.4193 6.27697C34.4624 6.26716 34.5029 6.24953 34.5385 6.22511C34.5741 6.2007 34.604 6.16998 34.6265 6.13476C34.6491 6.09954 34.6637 6.06054 34.6697 6.02003C34.6757 5.97952 34.6728 5.93832 34.6613 5.89884C34.6497 5.85937 34.6297 5.82242 34.6025 5.79015C34.5752 5.75788 34.5413 5.73095 34.5026 5.71093C34.061 5.47066 33.6099 5.24469 33.1484 5.03426C33.0985 5.01073 33.043 4.99918 32.987 5.00066ZM35.6719 6.45719C35.6606 6.45706 35.6493 6.45746 35.638 6.45839C35.569 6.46312 35.5034 6.48751 35.4501 6.52816C35.3969 6.56882 35.3586 6.62373 35.3408 6.68529C35.3229 6.74685 35.3262 6.81202 35.3503 6.87175C35.3744 6.93149 35.4181 6.98284 35.4753 7.01869C35.6971 7.16199 35.9155 7.30999 36.1302 7.4614C36.165 7.48598 36.2047 7.50401 36.2471 7.51445C36.2894 7.52489 36.3336 7.52754 36.3771 7.52225C36.4205 7.51696 36.4625 7.50383 36.5004 7.48362C36.5384 7.4634 36.5717 7.43649 36.5983 7.40443C36.625 7.37236 36.6446 7.33577 36.6559 7.29674C36.6672 7.25771 36.6701 7.21701 36.6643 7.17695C36.6586 7.1369 36.6444 7.09828 36.6224 7.0633C36.6005 7.02832 36.5713 6.99767 36.5365 6.97309C36.3139 6.81614 36.0869 6.66385 35.8581 6.51598C35.8038 6.47956 35.7389 6.45907 35.6719 6.45719ZM25 9.82856C22.2425 9.82856 20 11.8949 20 14.4357V17.8143H17.6667C17.5783 17.8143 17.4935 17.8466 17.431 17.9042C17.3685 17.9618 17.3333 18.0399 17.3333 18.1214V22.4214C17.3333 22.5029 17.3685 22.581 17.431 22.6386C17.4935 22.6962 17.5783 22.7285 17.6667 22.7285H20V34.0928C20 34.1743 20.0351 34.2524 20.0976 34.31C20.1602 34.3676 20.2449 34.3999 20.3333 34.4H25C25.0884 34.3999 25.1732 34.3676 25.2357 34.31C25.2982 34.2524 25.3333 34.1743 25.3333 34.0928V22.7285H29C29.0802 22.7284 29.1576 22.7016 29.2181 22.6532C29.2786 22.6047 29.3181 22.5377 29.3294 22.4646L29.9961 18.1646C30.0028 18.1211 29.9993 18.0768 29.9858 18.0346C29.9723 17.9925 29.9492 17.9535 29.918 17.9203C29.8868 17.8871 29.8482 17.8604 29.8048 17.8421C29.7615 17.8239 29.7144 17.8143 29.6667 17.8143H25.3333V15.6643C25.3333 15.1515 25.7775 14.7428 26.3333 14.7428H29.6667C29.7551 14.7428 29.8398 14.7105 29.9024 14.6529C29.9649 14.5953 30 14.5172 30 14.4357V10.1357C30 10.0542 29.9649 9.97613 29.9024 9.91853C29.8398 9.86093 29.7551 9.82857 29.6667 9.82856H25ZM25 10.4428H29.3333V14.1286H26.3333C25.4172 14.1286 24.6667 14.8194 24.6667 15.6643V18.1214C24.6667 18.2029 24.7018 18.281 24.7643 18.3386C24.8268 18.3962 24.9116 18.4285 25 18.4285H29.2826L28.7109 22.1143H25C24.9116 22.1143 24.8268 22.1466 24.7643 22.2042C24.7018 22.2618 24.6667 22.3399 24.6667 22.4214V33.7857H20.6667V22.4214C20.6667 22.3399 20.6315 22.2618 20.569 22.2042C20.5065 22.1466 20.4217 22.1143 20.3333 22.1143H18V18.4285H20.3333C20.4217 18.4285 20.5065 18.3962 20.569 18.3386C20.6315 18.281 20.6667 18.2029 20.6667 18.1214V14.4357C20.6667 12.2269 22.6028 10.4428 25 10.4428Z" fill="white"/>
</svg>
