<svg width="45" height="42" viewBox="0 0 45 42" fill="none" xmlns="http://www.w3.org/2000/svg">
<path d="M22.5 41.6348C34.9294 41.6348 45 32.3173 45 20.8174C45 9.31746 34.9294 0 22.5 0C10.0706 0 0 9.31746 0 20.8174C0 32.3173 10.0706 41.6348 22.5 41.6348ZM11.9758 17.124H22.5V11.1726C22.5 10.2744 23.6794 9.82111 24.3599 10.4591L34.7298 20.1039C35.1562 20.4984 35.1562 21.128 34.7298 21.5225L24.3599 31.1757C23.6704 31.8137 22.5 31.3604 22.5 30.4622V24.5108H11.9758C11.377 24.5108 10.8871 24.0575 10.8871 23.5035V18.1313C10.8871 17.5773 11.377 17.124 11.9758 17.124Z" fill="black"/>
</svg>
