<svg width="45" height="42" viewBox="0 0 45 42" fill="none" xmlns="http://www.w3.org/2000/svg">
<path d="M22.5 0C10.0706 0 0 9.31746 0 20.8174C0 32.3173 10.0706 41.6348 22.5 41.6348C34.9294 41.6348 45 32.3173 45 20.8174C45 9.31746 34.9294 0 22.5 0ZM33.0242 24.5108H22.5V30.4622C22.5 31.3604 21.3206 31.8137 20.6401 31.1757L10.2702 21.5309C9.84375 21.1364 9.84375 20.5068 10.2702 20.1123L20.6401 10.4591C21.3296 9.8211 22.5 10.2744 22.5 11.1726V17.124H33.0242C33.623 17.124 34.1129 17.5773 34.1129 18.1313V23.5035C34.1129 24.0575 33.623 24.5108 33.0242 24.5108Z" fill="black"/>
</svg>
