<svg width="48" height="45" viewBox="0 0 48 45" fill="none" xmlns="http://www.w3.org/2000/svg">
<path d="M24 0C10.7531 0 0 9.90817 0 22.1143C0 34.3203 10.7531 44.2285 24 44.2285C37.2469 44.2285 48 34.3203 48 22.1143C48 9.90817 37.2469 0 24 0ZM24 1.22857C36.5264 1.22857 46.6667 10.5721 46.6667 22.1143C46.6667 33.6564 36.5264 42.9999 24 42.9999C11.4736 42.9999 1.33333 33.6564 1.33333 22.1143C1.33333 10.5721 11.4736 1.22857 24 1.22857ZM24 3.07142C12.5899 3.07142 3.33333 11.6006 3.33333 22.1143C3.33333 32.6279 12.5899 41.1571 24 41.1571C35.4101 41.1571 44.6667 32.6279 44.6667 22.1143C44.6667 16.527 42.0527 11.4975 37.8906 8.0145C37.8585 7.98602 37.8205 7.96377 37.7788 7.94906C37.7372 7.93436 37.6928 7.9275 37.6482 7.92889C37.6037 7.93028 37.5599 7.9399 37.5194 7.95717C37.4789 7.97444 37.4426 7.99902 37.4127 8.02944C37.3827 8.05986 37.3597 8.09552 37.3449 8.13429C37.3302 8.17306 37.324 8.21417 37.3268 8.25517C37.3296 8.29618 37.3413 8.33625 37.3612 8.37301C37.3811 8.40978 37.4088 8.44249 37.4427 8.46921C41.4713 11.8404 44 16.7034 44 22.1143C44 32.2959 35.0499 40.5428 24 40.5428C12.9501 40.5428 4 32.2959 4 22.1143C4 11.9326 12.9501 3.68571 24 3.68571C26.4205 3.68571 28.7387 4.0825 30.8854 4.8075C30.9265 4.82137 30.9702 4.82764 31.014 4.82595C31.0577 4.82427 31.1007 4.81465 31.1404 4.79766C31.1802 4.78067 31.2159 4.75664 31.2455 4.72694C31.2751 4.69723 31.2981 4.66244 31.3132 4.62455C31.3282 4.58665 31.335 4.5464 31.3332 4.50608C31.3314 4.46576 31.3209 4.42617 31.3025 4.38957C31.284 4.35297 31.258 4.32008 31.2257 4.29277C31.1935 4.26546 31.1557 4.24427 31.1146 4.23041C28.896 3.48112 26.4995 3.07142 24 3.07142ZM32.987 5.00066C32.9121 5.00236 32.84 5.02725 32.7823 5.07132C32.7247 5.1154 32.6848 5.17608 32.6692 5.24359C32.6535 5.3111 32.663 5.3815 32.6961 5.44343C32.7292 5.50536 32.784 5.55522 32.8516 5.58495C33.2981 5.78855 33.7363 6.0073 34.1641 6.24003C34.2018 6.26153 34.2438 6.27587 34.2876 6.28221C34.3315 6.28855 34.3762 6.28677 34.4193 6.27697C34.4624 6.26716 34.5029 6.24953 34.5385 6.22511C34.5741 6.2007 34.604 6.16998 34.6265 6.13476C34.6491 6.09954 34.6637 6.06054 34.6697 6.02003C34.6757 5.97952 34.6728 5.93832 34.6613 5.89884C34.6497 5.85937 34.6297 5.82242 34.6025 5.79015C34.5752 5.75788 34.5413 5.73095 34.5026 5.71093C34.061 5.47066 33.6099 5.24469 33.1484 5.03426C33.0985 5.01073 33.043 4.99918 32.987 5.00066ZM35.6719 6.45719C35.6606 6.45706 35.6493 6.45746 35.638 6.45839C35.569 6.46312 35.5034 6.48751 35.4501 6.52816C35.3969 6.56882 35.3586 6.62373 35.3408 6.68529C35.3229 6.74685 35.3262 6.81202 35.3503 6.87175C35.3744 6.93149 35.4181 6.98284 35.4753 7.01869C35.6971 7.16199 35.9155 7.30999 36.1302 7.4614C36.165 7.48598 36.2047 7.50401 36.2471 7.51445C36.2894 7.52489 36.3336 7.52754 36.3771 7.52225C36.4205 7.51696 36.4625 7.50383 36.5004 7.48362C36.5384 7.4634 36.5717 7.43649 36.5983 7.40443C36.625 7.37236 36.6446 7.33577 36.6559 7.29674C36.6672 7.25771 36.6701 7.21701 36.6643 7.17695C36.6586 7.1369 36.6444 7.09828 36.6224 7.0633C36.6005 7.02832 36.5713 6.99767 36.5365 6.97309C36.3139 6.81614 36.0869 6.66385 35.8581 6.51598C35.8038 6.47956 35.7389 6.45907 35.6719 6.45719ZM33.5833 12.2857C32.9841 12.2857 32.401 12.5395 32.3997 12.5401L10.5 20.7093C10.4684 20.7189 10.2267 20.7946 9.96094 20.9577C9.67738 21.1316 9.33333 21.4331 9.33333 21.8851C9.33333 22.3681 9.65381 22.7071 9.9362 22.8941C10.2186 23.0811 10.5 23.1569 10.5 23.1569C10.5026 23.1573 10.5052 23.1577 10.5078 23.1581L15.5755 24.425C15.628 24.5603 16.2002 26.0348 16.8307 27.6584C17.1601 28.5067 17.4915 29.3578 17.7435 30.0052C17.8695 30.3289 17.9756 30.6015 18.0521 30.797C18.0903 30.8948 18.121 30.9735 18.1432 31.0298C18.1654 31.086 18.1696 31.1004 18.1862 31.1378C18.3204 31.4403 18.4418 31.6155 18.5586 31.7293C18.617 31.7861 18.6761 31.8271 18.7331 31.8552C18.747 31.8621 18.7601 31.8655 18.7734 31.8708C18.7756 31.8721 18.7778 31.8733 18.7799 31.8744C18.7822 31.8754 18.7843 31.8759 18.7865 31.8768C18.7958 31.8802 18.8058 31.885 18.8151 31.8876C18.8263 31.8908 18.8328 31.8912 18.8464 31.8936C18.9537 31.9291 19.0621 31.9451 19.1615 31.9392C19.4844 31.9271 19.7109 31.7629 19.7109 31.7629C19.7181 31.7575 19.7251 31.7519 19.7318 31.7461L23.0339 28.935L28.026 32.8271C28.026 32.8271 28.1487 32.9285 28.3372 33.0106C28.5257 33.0928 28.8012 33.1714 29.151 33.1714C29.7998 33.1714 30.2382 32.9039 30.4701 32.6327C30.7019 32.3615 30.7565 32.0748 30.7565 32.0748V32.0796C30.7565 32.0796 31.7205 27.475 32.6888 22.8497C33.1729 20.5371 33.658 18.2194 34.0234 16.4693C34.2062 15.5943 34.3595 14.8606 34.4674 14.3409C34.5214 14.0811 34.564 13.8746 34.5938 13.7302C34.6086 13.6581 34.6208 13.6014 34.6289 13.5611C34.6371 13.5207 34.638 13.5234 34.6445 13.4795C34.6573 13.394 34.6667 13.3018 34.6667 13.2071C34.6667 12.9333 34.535 12.6824 34.3294 12.5221C34.1238 12.3617 33.8583 12.2857 33.5833 12.2857ZM33.5833 12.9C33.725 12.9 33.8345 12.9391 33.8997 12.99C33.965 13.0408 34 13.0971 34 13.2071C34 13.2611 33.9942 13.3298 33.9844 13.3955C33.9894 13.3619 33.9806 13.4104 33.9727 13.4495C33.9648 13.4886 33.9536 13.5444 33.9388 13.6162C33.9092 13.7599 33.8664 13.9661 33.8125 14.2257C33.7046 14.745 33.5525 15.478 33.3698 16.3529C33.0044 18.1029 32.5193 20.4207 32.0352 22.7333C31.0669 27.3586 30.1016 31.9632 30.1016 31.9632C30.1011 31.9648 30.1007 31.9664 30.1003 31.968C30.1003 31.968 30.075 32.1022 29.9466 32.2524C29.8183 32.4025 29.6176 32.5571 29.151 32.5571C28.9076 32.5571 28.7342 32.505 28.6224 32.4563C28.5106 32.4076 28.4805 32.3783 28.4805 32.3783C28.4767 32.3746 28.4728 32.371 28.4688 32.3675L20.4128 26.0855L30.3607 17.3679L30.3346 17.3883C30.5536 17.233 30.6667 16.9961 30.6667 16.7609C30.6667 16.7605 30.6667 16.7601 30.6667 16.7597C30.6656 16.5955 30.6092 16.4273 30.4935 16.2857C30.3316 16.0852 30.0797 15.9728 29.8255 15.9714H29.8242C29.6405 15.9706 29.456 16.0276 29.3034 16.1358L29.3307 16.1178L15.8307 23.8167L15.9987 23.9043C15.9741 23.8917 15.9478 23.882 15.9206 23.8755L10.6849 22.5666L10.6823 22.5654C10.6762 22.5637 10.504 22.5144 10.3255 22.3962C10.1439 22.276 10 22.1263 10 21.8851C10 21.732 10.135 21.5889 10.3307 21.4688C10.5265 21.3487 10.7279 21.2864 10.7279 21.2864C10.7353 21.2843 10.7427 21.2819 10.75 21.2792L32.6589 13.1063C32.6619 13.1052 32.665 13.104 32.668 13.1027C32.668 13.1027 33.2099 12.9 33.5833 12.9ZM29.8216 16.5857C29.8724 16.5859 29.9204 16.6043 29.9596 16.6529C29.9601 16.6533 29.9605 16.6537 29.9609 16.6541C29.9864 16.685 29.9995 16.7224 30 16.7621C29.9997 16.8164 29.9745 16.8688 29.9271 16.9024C29.918 16.9088 29.9093 16.9156 29.901 16.9228L19.6836 25.8768C19.6308 25.9232 19.5961 25.9843 19.5846 26.0507H19.582L18.7383 30.7406C18.7201 30.6943 18.7034 30.6535 18.6784 30.5895C18.6021 30.3945 18.4957 30.1212 18.3698 29.7976C18.1179 29.1505 17.7877 28.299 17.4583 27.4509C16.845 25.8713 16.3178 24.5145 16.237 24.3062L29.6823 16.6397C29.6917 16.6341 29.7009 16.6281 29.7096 16.6217C29.7473 16.595 29.7857 16.5855 29.8216 16.5857ZM20.1445 26.6818L22.5208 28.5355L19.3216 31.2589L20.1445 26.6818Z" fill="white"/>
</svg>
