<svg width="48" height="45" viewBox="0 0 48 45" fill="none" xmlns="http://www.w3.org/2000/svg">
<path d="M24 0C10.7531 0 0 9.90819 0 22.1143C0 25.988 1.10195 29.6233 3.00268 32.7901L0.0495536 42.6267C-0.225072 43.5423 0.744301 44.436 1.73839 44.1816L12.4152 41.4605C15.8524 43.2122 19.7963 44.2285 24 44.2285C37.2469 44.2285 48 34.3203 48 22.1143C48 9.90819 37.2469 0 24 0ZM24 1.26367C36.5058 1.26367 46.6286 10.5911 46.6286 22.1143C46.6286 33.6374 36.5058 42.9648 24 42.9648C19.9302 42.9648 16.1193 41.9709 12.8196 40.2388C12.7411 40.1977 12.6545 40.1714 12.5649 40.1612C12.4753 40.151 12.3843 40.1573 12.2973 40.1796L1.37143 42.9636L4.3942 32.8974C4.4182 32.8172 4.42476 32.7333 4.4135 32.6508C4.40224 32.5682 4.37337 32.4884 4.32857 32.4161C2.44945 29.3764 1.37143 25.8643 1.37143 22.1143C1.37143 10.5911 11.4942 1.26367 24 1.26367ZM24 4.42285C13.4001 4.42285 4.8 12.3472 4.8 22.1143C4.8 25.8304 6.05911 29.273 8.18438 32.12L6.45134 37.8953C6.43517 37.9492 6.43481 38.0061 6.45027 38.0601C6.46573 38.1141 6.49648 38.1634 6.53937 38.203C6.58226 38.2425 6.63575 38.2708 6.6944 38.2851C6.75305 38.2993 6.81475 38.299 6.87321 38.2841L13.1411 36.6872C16.2311 38.6461 19.967 39.8057 24 39.8057C34.5999 39.8057 43.2 31.8813 43.2 22.1143C43.2 17.2493 41.0666 12.8399 37.6152 9.64167C37.5511 9.5821 37.4639 9.54844 37.3729 9.54809C37.2818 9.54775 37.1943 9.58074 37.1297 9.63982C37.065 9.69889 37.0285 9.77921 37.0281 9.86311C37.0278 9.947 37.0636 10.0276 37.1277 10.0872C40.4566 13.1719 42.5143 17.4195 42.5143 22.1143C42.5143 31.5399 34.2293 39.1738 24 39.1738C20.0487 39.1738 16.3926 38.0312 13.3862 36.0887C13.3448 36.062 13.2975 36.0441 13.2477 36.0362C13.198 36.0283 13.1469 36.0306 13.0982 36.043L7.27366 37.5276L8.88482 32.1607C8.89828 32.1158 8.90082 32.0688 8.89225 32.0229C8.88368 31.9771 8.86423 31.9335 8.83527 31.8954C6.72704 29.1251 5.48571 25.7557 5.48571 22.1143C5.48571 12.6887 13.7707 5.05469 24 5.05469C25.7511 5.05469 27.4429 5.2837 29.0491 5.70257C29.0925 5.71391 29.1378 5.71728 29.1826 5.71247C29.2273 5.70766 29.2706 5.69478 29.31 5.67455C29.3494 5.65433 29.384 5.62716 29.412 5.59459C29.44 5.56202 29.4607 5.5247 29.473 5.48476C29.4853 5.44481 29.489 5.40302 29.4837 5.36177C29.4785 5.32052 29.4645 5.28062 29.4426 5.24436C29.4206 5.20809 29.3912 5.17616 29.3558 5.15039C29.3205 5.12462 29.28 5.10552 29.2366 5.09418C27.5719 4.66006 25.816 4.42285 24 4.42285ZM31.1973 5.73589C31.118 5.73615 31.0412 5.76176 30.98 5.80836C30.9189 5.85496 30.8771 5.91967 30.862 5.99144C30.8468 6.06322 30.8591 6.13762 30.8968 6.20196C30.9345 6.2663 30.9953 6.3166 31.0688 6.34427C31.7643 6.60957 32.4374 6.91413 33.0884 7.25254C33.1276 7.2755 33.1715 7.29087 33.2174 7.29771C33.2633 7.30455 33.3102 7.30272 33.3553 7.29234C33.4004 7.28195 33.4428 7.26323 33.4798 7.2373C33.5168 7.21137 33.5477 7.17878 33.5706 7.1415C33.5935 7.10423 33.6079 7.06306 33.613 7.02048C33.6181 6.97791 33.6138 6.93482 33.6002 6.89385C33.5867 6.85287 33.5643 6.81485 33.5343 6.78211C33.5043 6.74937 33.4674 6.72258 33.4259 6.70338C32.7521 6.35309 32.0537 6.03612 31.3313 5.76057C31.2889 5.74415 31.2433 5.73575 31.1973 5.73589V5.73589ZM34.6299 7.44382C34.556 7.44304 34.4838 7.46429 34.424 7.5044C34.3643 7.54452 34.3202 7.60135 34.2984 7.66642C34.2766 7.7315 34.2781 7.80133 34.3029 7.86551C34.3276 7.9297 34.3742 7.98479 34.4357 8.02259C34.9002 8.31517 35.35 8.62592 35.7817 8.9543C35.8518 9.00765 35.9421 9.03313 36.0327 9.02515C36.1232 9.01717 36.2066 8.97637 36.2645 8.91173C36.3224 8.84708 36.3501 8.7639 36.3414 8.68047C36.3327 8.59704 36.2885 8.5202 36.2183 8.46685C35.7695 8.12548 35.3019 7.80443 34.8214 7.50182C34.7653 7.46524 34.6986 7.44503 34.6299 7.44382V7.44382ZM16.1183 12.0098C15.6653 12.0098 14.9652 12.1692 14.3853 12.7626C13.9002 13.2513 12.3415 14.642 12.3415 17.3101C12.3415 20.0164 14.4158 22.5335 14.6826 22.8695L14.6839 22.872L14.6853 22.8732C14.6952 22.8853 14.7948 23.0233 14.9317 23.2101C15.0686 23.3969 15.2559 23.6477 15.4902 23.9456C15.9587 24.5413 16.6156 25.3249 17.4442 26.1644C19.1015 27.8436 21.4427 29.7509 24.3429 30.8193V30.8205C26.7092 31.6903 28.1482 32.0454 29.1455 32.1706C30.1428 32.2957 30.7027 32.1822 31.1799 32.1422H31.1813C31.8084 32.0872 32.6366 31.7535 33.4259 31.2771C34.2152 30.8007 34.9531 30.1895 35.2313 29.4594C35.4729 28.8273 35.5951 28.2412 35.6384 27.7749C35.66 27.5417 35.6616 27.3383 35.6478 27.1689C35.6339 26.9996 35.6249 26.8759 35.5313 26.7272H35.5299C35.4084 26.535 35.2248 26.4247 35.025 26.3224C34.8255 26.2203 34.5942 26.1235 34.3219 25.9966H34.3205C34.0374 25.8634 33.2178 25.4853 32.3987 25.1167C31.5791 24.7479 30.7995 24.4006 30.4795 24.2911H30.4781C30.2157 24.2028 29.952 24.1134 29.6438 24.1467C29.3355 24.1801 29.0421 24.369 28.8228 24.6749C28.4874 25.1428 27.4035 26.34 27.0857 26.6778V26.679H27.0844C26.9535 26.8185 26.8778 26.8537 26.7871 26.8641C26.6963 26.8745 26.5408 26.849 26.2915 26.7346L26.2942 26.737C25.9702 26.5846 25.4187 26.3975 24.6549 26.0163C23.8911 25.6351 22.9357 25.0703 21.8946 24.2035C20.2871 22.8653 19.1794 21.1906 18.8625 20.6828V20.6815C18.7353 20.4795 18.7491 20.4045 18.7821 20.3212C18.8149 20.2386 18.9141 20.1301 19.05 20.0028L19.0527 20.0003C19.3376 19.7386 19.6404 19.3636 19.9085 19.0723L19.9098 19.0711V19.0698C20.2113 18.7366 20.3258 18.4816 20.5085 18.1443L20.5098 18.1431V18.1418C20.7469 17.6927 20.6218 17.2529 20.4643 16.9547C20.4473 16.9218 20.3468 16.6975 20.2192 16.4055C20.0913 16.1127 19.9266 15.7349 19.7518 15.3331C19.4021 14.5296 19.0097 13.6327 18.7567 13.1081C18.5305 12.6368 18.2728 12.3511 17.9813 12.1937C17.6906 12.0368 17.4022 12.0285 17.2018 12.0222H17.1991C16.8631 12.0092 16.489 12.0098 16.1183 12.0098ZM16.1183 12.6417C16.49 12.6417 16.8575 12.6418 17.1723 12.654H17.1737H17.175C17.3736 12.6603 17.5018 12.6676 17.6344 12.7391C17.7669 12.8107 17.9392 12.9661 18.1299 13.3636V13.3648C18.372 13.8669 18.7665 14.7666 19.1156 15.5688C19.2902 15.97 19.4544 16.3468 19.583 16.6412C19.7117 16.9356 19.7955 17.1295 19.8469 17.2286V17.2299L19.8482 17.2311C19.9663 17.4548 20.0229 17.6208 19.8938 17.8654C19.702 18.2197 19.6312 18.3913 19.3835 18.6651L19.3862 18.6638C19.0968 18.9783 18.7856 19.3541 18.5665 19.5548L18.5652 19.5561L18.5638 19.5573C18.4225 19.6895 18.238 19.8527 18.1379 20.1052C18.0379 20.3577 18.0707 20.6832 18.2692 20.9987C18.6043 21.5355 19.7344 23.2566 21.4353 24.6725C22.5209 25.5762 23.5255 26.1711 24.3281 26.5717C25.131 26.9724 25.7528 27.1912 25.9835 27.2998H25.9848L25.9862 27.301C26.2958 27.4431 26.5806 27.5244 26.8714 27.491C27.1619 27.4577 27.408 27.2995 27.6027 27.0924C27.9363 26.7378 28.9895 25.59 29.396 25.0229C29.5477 24.8113 29.6252 24.7842 29.7228 24.7736C29.8203 24.7631 29.996 24.8018 30.2424 24.8847C30.437 24.9514 31.2822 25.3176 32.0973 25.6844C32.9132 26.0515 33.7378 26.4314 34.0098 26.5593H34.0112C34.2979 26.693 34.5315 26.7921 34.6915 26.874C34.8515 26.9559 34.9216 27.0184 34.9379 27.0443C34.9129 27.0045 34.9545 27.0923 34.9647 27.2171C34.975 27.3419 34.9731 27.5152 34.954 27.7206C34.9159 28.1314 34.8056 28.671 34.5844 29.2496C34.3997 29.7344 33.7698 30.315 33.0509 30.7489C32.332 31.1828 31.5122 31.4781 31.117 31.5128C30.5771 31.5582 30.1492 31.658 29.2379 31.5437C28.3261 31.4292 26.9343 31.0921 24.5973 30.2331C21.8411 29.2177 19.5662 27.3757 17.9518 25.7399C17.1446 24.922 16.5019 24.1568 16.0446 23.5754C15.816 23.2847 15.6338 23.0403 15.4996 22.8572C15.3653 22.674 15.2931 22.5666 15.233 22.4931C14.9468 22.1327 13.0272 19.7102 13.0272 17.3101C13.0272 14.8603 14.3494 13.7346 14.8915 13.1883V13.1871H14.8929C15.3301 12.7387 15.8382 12.6417 16.1183 12.6417Z" fill="white"/>
</svg>
